# xmcd
#
# Track frame offsets: 
#        150
#        21270
#        40362
#        58987
#        76215
#        81286
#        97739
#        114774
#        133305
#        149180
#
# Disc length: 2219 seconds
#
# Revision: 3
# Processed by: cddbd v1.5.2PL0 Copyright (c) Steve Scherf et al.
# Submitted via: ExactAudioCopyFreeDBPlugin 1.0
#
DISCID=8908a90a
DTITLE=Diana Ross - 1982 - Silk Electric
DYEAR=1982
DGENRE=R&B/Pop
TTITLE0=Muscles
TTITLE1=So Close
TTITLE2=Still In Love
TTITLE3=Fool For Your Love
TTITLE4=Turn Me Over
TTITLE5=Who
TTITLE6=Love Lies
TTITLE7=In Your Arms
TTITLE8=Anywhere You Run To
TTITLE9=I Am Me
EXTD=
EXTT0=
EXTT1=
EXTT2=
EXTT3=
EXTT4=
EXTT5=
EXTT6=
EXTT7=
EXTT8=
EXTT9=
PLAYORDER=
